M48
; DRILL file {KiCad (6.0.0)} date Wed Jul  6 21:22:19 2022
; FORMAT={-:-/ absolute / metric / decimal}
; #@! TF.CreationDate,2022-07-06T21:22:19+12:00
; #@! TF.GenerationSoftware,Kicad,Pcbnew,(6.0.0)
; #@! TF.FileFunction,Plated,1,2,PTH
FMAT,2
METRIC
; #@! TA.AperFunction,Plated,PTH,ViaDrill
T1C0.300
; #@! TA.AperFunction,Plated,PTH,ComponentDrill
T2C2.200
%
G90
G05
T1
X187.96Y-134.62
X187.96Y-135.89
X187.96Y-137.16
X187.96Y-138.43
X187.96Y-140.97
X187.96Y-142.24
X187.96Y-143.51
X187.96Y-144.78
X187.96Y-146.05
X189.23Y-133.35
X189.23Y-134.62
X189.23Y-135.89
X189.23Y-137.16
X189.23Y-142.24
X189.23Y-143.51
X189.23Y-144.78
X189.23Y-146.05
X190.5Y-133.35
X190.5Y-134.62
X190.5Y-135.89
X190.5Y-137.16
X190.5Y-142.24
X190.5Y-143.51
X190.5Y-144.78
X190.5Y-146.05
X191.77Y-133.35
X191.77Y-134.62
X191.77Y-135.89
X191.77Y-137.16
X191.77Y-138.43
X191.77Y-140.97
X191.77Y-142.24
X191.77Y-143.51
X191.77Y-144.78
X191.77Y-146.05
X193.027Y-142.237
X193.04Y-133.35
X193.04Y-134.62
X193.04Y-135.89
X193.04Y-137.16
X193.04Y-138.43
X193.04Y-139.7
X193.04Y-140.97
X193.04Y-143.51
X193.04Y-144.78
X193.04Y-146.05
X194.31Y-133.35
X194.31Y-134.62
X194.31Y-135.89
X194.31Y-137.16
X194.31Y-138.43
X194.31Y-140.97
X194.31Y-142.24
X194.31Y-143.51
X194.31Y-144.78
X194.31Y-146.05
X195.58Y-133.35
X195.58Y-134.62
X195.58Y-135.89
X195.58Y-137.16
X195.58Y-142.24
X195.58Y-143.51
X195.58Y-144.78
X195.58Y-146.05
X196.85Y-133.35
X196.85Y-134.62
X196.85Y-135.89
X196.85Y-137.16
X196.85Y-138.43
X196.85Y-140.97
X196.85Y-142.24
X196.85Y-143.51
X196.85Y-144.78
X196.85Y-146.05
X198.12Y-133.35
X198.12Y-134.62
X198.12Y-135.89
X198.12Y-137.16
X198.12Y-142.24
X198.12Y-143.51
X198.12Y-144.78
X198.12Y-146.05
X199.39Y-133.35
X199.39Y-146.05
X200.66Y-133.35
X200.66Y-146.05
X201.93Y-133.35
X201.93Y-134.62
X201.93Y-135.89
X201.93Y-137.16
X201.93Y-142.24
X201.93Y-143.51
X201.93Y-144.78
X201.93Y-146.05
X203.2Y-133.35
X203.2Y-134.62
X203.2Y-135.89
X203.2Y-137.16
X203.2Y-138.43
X203.2Y-140.97
X203.2Y-142.24
X203.2Y-143.51
X203.2Y-144.78
X203.2Y-146.05
X204.47Y-133.35
X204.47Y-134.62
X204.47Y-135.89
X204.47Y-137.16
X204.47Y-142.24
X204.47Y-143.51
X204.47Y-144.78
X204.47Y-146.05
X205.692Y-143.508
X205.74Y-133.35
X205.74Y-134.62
X205.74Y-135.89
X205.74Y-137.16
X205.74Y-138.43
X205.74Y-140.97
X205.74Y-142.24
X205.74Y-144.78
X205.74Y-146.05
X207.01Y-133.35
X207.01Y-134.62
X207.01Y-135.89
X207.01Y-137.16
X207.01Y-138.43
X207.01Y-139.7
X207.01Y-140.97
X207.01Y-142.24
X207.01Y-143.51
X207.01Y-144.78
X207.01Y-146.05
X208.252Y-135.871
X208.28Y-133.35
X208.28Y-134.62
X208.28Y-137.16
X208.28Y-138.43
X208.28Y-140.97
X208.28Y-142.24
X208.28Y-143.51
X208.28Y-144.78
X208.28Y-146.05
X209.55Y-133.35
X209.55Y-134.62
X209.55Y-135.89
X209.55Y-137.16
X209.55Y-142.24
X209.55Y-143.51
X209.55Y-144.78
X209.55Y-146.05
X210.82Y-133.35
X210.82Y-134.62
X210.82Y-135.89
X210.82Y-137.16
X210.82Y-142.24
X210.82Y-143.51
X210.82Y-144.78
X210.82Y-146.05
X212.09Y-133.35
X212.09Y-134.62
X212.09Y-135.89
X212.09Y-137.16
X212.09Y-138.43
X212.09Y-140.97
X212.09Y-142.24
X212.09Y-143.51
X212.09Y-144.78
X212.09Y-146.05
T2
X190.025Y-139.7
X210.025Y-139.7
T0
M30
