%TF.GenerationSoftware,KiCad,Pcbnew,(6.0.0)*%
%TF.CreationDate,2022-07-06T21:22:10+12:00*%
%TF.ProjectId,N20_FACEPLATE,4e32305f-4641-4434-9550-4c4154452e6b,0A*%
%TF.SameCoordinates,Original*%
%TF.FileFunction,Copper,L2,Bot*%
%TF.FilePolarity,Positive*%
%FSLAX46Y46*%
G04 Gerber Fmt 4.6, Leading zero omitted, Abs format (unit mm)*
G04 Created by KiCad (PCBNEW (6.0.0)) date 2022-07-06 21:22:10*
%MOMM*%
%LPD*%
G01*
G04 APERTURE LIST*
%ADD10C,0.100000*%
%ADD11C,0.150000*%
%ADD12C,0.300000*%
%ADD13C,0.400000*%
%TA.AperFunction,ComponentPad*%
%ADD14C,2.600000*%
%TD*%
%TA.AperFunction,ConnectorPad*%
%ADD15C,3.800000*%
%TD*%
%TA.AperFunction,ViaPad*%
%ADD16C,0.600000*%
%TD*%
G04 APERTURE END LIST*
D10*
D11*
X299989000Y-253002200D02*
X299989000Y-285002200D01*
X407989000Y-285002200D01*
X407989000Y-253002200D01*
X299989000Y-253002200D01*
D10*
D11*
X10000000Y-10000000D02*
X10000000Y-287002200D01*
X409989000Y-287002200D01*
X409989000Y-10000000D01*
X10000000Y-10000000D01*
D10*
D11*
X12000000Y-12000000D02*
X12000000Y-285002200D01*
X407989000Y-285002200D01*
X407989000Y-12000000D01*
X12000000Y-12000000D01*
D10*
D11*
X60000000Y-12000000D02*
X60000000Y-10000000D01*
D10*
D11*
X110000000Y-12000000D02*
X110000000Y-10000000D01*
D10*
D11*
X160000000Y-12000000D02*
X160000000Y-10000000D01*
D10*
D11*
X210000000Y-12000000D02*
X210000000Y-10000000D01*
D10*
D11*
X260000000Y-12000000D02*
X260000000Y-10000000D01*
D10*
D11*
X310000000Y-12000000D02*
X310000000Y-10000000D01*
D10*
D11*
X360000000Y-12000000D02*
X360000000Y-10000000D01*
D10*
D11*
X36065476Y-11588095D02*
X35322619Y-11588095D01*
X35694047Y-11588095D02*
X35694047Y-10288095D01*
X35570238Y-10473809D01*
X35446428Y-10597619D01*
X35322619Y-10659523D01*
D10*
D11*
X85322619Y-10411904D02*
X85384523Y-10350000D01*
X85508333Y-10288095D01*
X85817857Y-10288095D01*
X85941666Y-10350000D01*
X86003571Y-10411904D01*
X86065476Y-10535714D01*
X86065476Y-10659523D01*
X86003571Y-10845238D01*
X85260714Y-11588095D01*
X86065476Y-11588095D01*
D10*
D11*
X135260714Y-10288095D02*
X136065476Y-10288095D01*
X135632142Y-10783333D01*
X135817857Y-10783333D01*
X135941666Y-10845238D01*
X136003571Y-10907142D01*
X136065476Y-11030952D01*
X136065476Y-11340476D01*
X136003571Y-11464285D01*
X135941666Y-11526190D01*
X135817857Y-11588095D01*
X135446428Y-11588095D01*
X135322619Y-11526190D01*
X135260714Y-11464285D01*
D10*
D11*
X185941666Y-10721428D02*
X185941666Y-11588095D01*
X185632142Y-10226190D02*
X185322619Y-11154761D01*
X186127380Y-11154761D01*
D10*
D11*
X236003571Y-10288095D02*
X235384523Y-10288095D01*
X235322619Y-10907142D01*
X235384523Y-10845238D01*
X235508333Y-10783333D01*
X235817857Y-10783333D01*
X235941666Y-10845238D01*
X236003571Y-10907142D01*
X236065476Y-11030952D01*
X236065476Y-11340476D01*
X236003571Y-11464285D01*
X235941666Y-11526190D01*
X235817857Y-11588095D01*
X235508333Y-11588095D01*
X235384523Y-11526190D01*
X235322619Y-11464285D01*
D10*
D11*
X285941666Y-10288095D02*
X285694047Y-10288095D01*
X285570238Y-10350000D01*
X285508333Y-10411904D01*
X285384523Y-10597619D01*
X285322619Y-10845238D01*
X285322619Y-11340476D01*
X285384523Y-11464285D01*
X285446428Y-11526190D01*
X285570238Y-11588095D01*
X285817857Y-11588095D01*
X285941666Y-11526190D01*
X286003571Y-11464285D01*
X286065476Y-11340476D01*
X286065476Y-11030952D01*
X286003571Y-10907142D01*
X285941666Y-10845238D01*
X285817857Y-10783333D01*
X285570238Y-10783333D01*
X285446428Y-10845238D01*
X285384523Y-10907142D01*
X285322619Y-11030952D01*
D10*
D11*
X335260714Y-10288095D02*
X336127380Y-10288095D01*
X335570238Y-11588095D01*
D10*
D11*
X385570238Y-10845238D02*
X385446428Y-10783333D01*
X385384523Y-10721428D01*
X385322619Y-10597619D01*
X385322619Y-10535714D01*
X385384523Y-10411904D01*
X385446428Y-10350000D01*
X385570238Y-10288095D01*
X385817857Y-10288095D01*
X385941666Y-10350000D01*
X386003571Y-10411904D01*
X386065476Y-10535714D01*
X386065476Y-10597619D01*
X386003571Y-10721428D01*
X385941666Y-10783333D01*
X385817857Y-10845238D01*
X385570238Y-10845238D01*
X385446428Y-10907142D01*
X385384523Y-10969047D01*
X385322619Y-11092857D01*
X385322619Y-11340476D01*
X385384523Y-11464285D01*
X385446428Y-11526190D01*
X385570238Y-11588095D01*
X385817857Y-11588095D01*
X385941666Y-11526190D01*
X386003571Y-11464285D01*
X386065476Y-11340476D01*
X386065476Y-11092857D01*
X386003571Y-10969047D01*
X385941666Y-10907142D01*
X385817857Y-10845238D01*
D10*
D11*
X60000000Y-285002200D02*
X60000000Y-287002200D01*
D10*
D11*
X110000000Y-285002200D02*
X110000000Y-287002200D01*
D10*
D11*
X160000000Y-285002200D02*
X160000000Y-287002200D01*
D10*
D11*
X210000000Y-285002200D02*
X210000000Y-287002200D01*
D10*
D11*
X260000000Y-285002200D02*
X260000000Y-287002200D01*
D10*
D11*
X310000000Y-285002200D02*
X310000000Y-287002200D01*
D10*
D11*
X360000000Y-285002200D02*
X360000000Y-287002200D01*
D10*
D11*
X36065476Y-286590295D02*
X35322619Y-286590295D01*
X35694047Y-286590295D02*
X35694047Y-285290295D01*
X35570238Y-285476009D01*
X35446428Y-285599819D01*
X35322619Y-285661723D01*
D10*
D11*
X85322619Y-285414104D02*
X85384523Y-285352200D01*
X85508333Y-285290295D01*
X85817857Y-285290295D01*
X85941666Y-285352200D01*
X86003571Y-285414104D01*
X86065476Y-285537914D01*
X86065476Y-285661723D01*
X86003571Y-285847438D01*
X85260714Y-286590295D01*
X86065476Y-286590295D01*
D10*
D11*
X135260714Y-285290295D02*
X136065476Y-285290295D01*
X135632142Y-285785533D01*
X135817857Y-285785533D01*
X135941666Y-285847438D01*
X136003571Y-285909342D01*
X136065476Y-286033152D01*
X136065476Y-286342676D01*
X136003571Y-286466485D01*
X135941666Y-286528390D01*
X135817857Y-286590295D01*
X135446428Y-286590295D01*
X135322619Y-286528390D01*
X135260714Y-286466485D01*
D10*
D11*
X185941666Y-285723628D02*
X185941666Y-286590295D01*
X185632142Y-285228390D02*
X185322619Y-286156961D01*
X186127380Y-286156961D01*
D10*
D11*
X236003571Y-285290295D02*
X235384523Y-285290295D01*
X235322619Y-285909342D01*
X235384523Y-285847438D01*
X235508333Y-285785533D01*
X235817857Y-285785533D01*
X235941666Y-285847438D01*
X236003571Y-285909342D01*
X236065476Y-286033152D01*
X236065476Y-286342676D01*
X236003571Y-286466485D01*
X235941666Y-286528390D01*
X235817857Y-286590295D01*
X235508333Y-286590295D01*
X235384523Y-286528390D01*
X235322619Y-286466485D01*
D10*
D11*
X285941666Y-285290295D02*
X285694047Y-285290295D01*
X285570238Y-285352200D01*
X285508333Y-285414104D01*
X285384523Y-285599819D01*
X285322619Y-285847438D01*
X285322619Y-286342676D01*
X285384523Y-286466485D01*
X285446428Y-286528390D01*
X285570238Y-286590295D01*
X285817857Y-286590295D01*
X285941666Y-286528390D01*
X286003571Y-286466485D01*
X286065476Y-286342676D01*
X286065476Y-286033152D01*
X286003571Y-285909342D01*
X285941666Y-285847438D01*
X285817857Y-285785533D01*
X285570238Y-285785533D01*
X285446428Y-285847438D01*
X285384523Y-285909342D01*
X285322619Y-286033152D01*
D10*
D11*
X335260714Y-285290295D02*
X336127380Y-285290295D01*
X335570238Y-286590295D01*
D10*
D11*
X385570238Y-285847438D02*
X385446428Y-285785533D01*
X385384523Y-285723628D01*
X385322619Y-285599819D01*
X385322619Y-285537914D01*
X385384523Y-285414104D01*
X385446428Y-285352200D01*
X385570238Y-285290295D01*
X385817857Y-285290295D01*
X385941666Y-285352200D01*
X386003571Y-285414104D01*
X386065476Y-285537914D01*
X386065476Y-285599819D01*
X386003571Y-285723628D01*
X385941666Y-285785533D01*
X385817857Y-285847438D01*
X385570238Y-285847438D01*
X385446428Y-285909342D01*
X385384523Y-285971247D01*
X385322619Y-286095057D01*
X385322619Y-286342676D01*
X385384523Y-286466485D01*
X385446428Y-286528390D01*
X385570238Y-286590295D01*
X385817857Y-286590295D01*
X385941666Y-286528390D01*
X386003571Y-286466485D01*
X386065476Y-286342676D01*
X386065476Y-286095057D01*
X386003571Y-285971247D01*
X385941666Y-285909342D01*
X385817857Y-285847438D01*
D10*
D11*
X10000000Y-60000000D02*
X12000000Y-60000000D01*
D10*
D11*
X10000000Y-110000000D02*
X12000000Y-110000000D01*
D10*
D11*
X10000000Y-160000000D02*
X12000000Y-160000000D01*
D10*
D11*
X10000000Y-210000000D02*
X12000000Y-210000000D01*
D10*
D11*
X10000000Y-260000000D02*
X12000000Y-260000000D01*
D10*
D11*
X10690476Y-35216666D02*
X11309523Y-35216666D01*
X10566666Y-35588095D02*
X11000000Y-34288095D01*
X11433333Y-35588095D01*
D10*
D11*
X11092857Y-84907142D02*
X11278571Y-84969047D01*
X11340476Y-85030952D01*
X11402380Y-85154761D01*
X11402380Y-85340476D01*
X11340476Y-85464285D01*
X11278571Y-85526190D01*
X11154761Y-85588095D01*
X10659523Y-85588095D01*
X10659523Y-84288095D01*
X11092857Y-84288095D01*
X11216666Y-84350000D01*
X11278571Y-84411904D01*
X11340476Y-84535714D01*
X11340476Y-84659523D01*
X11278571Y-84783333D01*
X11216666Y-84845238D01*
X11092857Y-84907142D01*
X10659523Y-84907142D01*
D10*
D11*
X11402380Y-135464285D02*
X11340476Y-135526190D01*
X11154761Y-135588095D01*
X11030952Y-135588095D01*
X10845238Y-135526190D01*
X10721428Y-135402380D01*
X10659523Y-135278571D01*
X10597619Y-135030952D01*
X10597619Y-134845238D01*
X10659523Y-134597619D01*
X10721428Y-134473809D01*
X10845238Y-134350000D01*
X11030952Y-134288095D01*
X11154761Y-134288095D01*
X11340476Y-134350000D01*
X11402380Y-134411904D01*
D10*
D11*
X10659523Y-185588095D02*
X10659523Y-184288095D01*
X10969047Y-184288095D01*
X11154761Y-184350000D01*
X11278571Y-184473809D01*
X11340476Y-184597619D01*
X11402380Y-184845238D01*
X11402380Y-185030952D01*
X11340476Y-185278571D01*
X11278571Y-185402380D01*
X11154761Y-185526190D01*
X10969047Y-185588095D01*
X10659523Y-185588095D01*
D10*
D11*
X10721428Y-234907142D02*
X11154761Y-234907142D01*
X11340476Y-235588095D02*
X10721428Y-235588095D01*
X10721428Y-234288095D01*
X11340476Y-234288095D01*
D10*
D11*
X11185714Y-284907142D02*
X10752380Y-284907142D01*
X10752380Y-285588095D02*
X10752380Y-284288095D01*
X11371428Y-284288095D01*
D10*
D11*
X409989000Y-60000000D02*
X407989000Y-60000000D01*
D10*
D11*
X409989000Y-110000000D02*
X407989000Y-110000000D01*
D10*
D11*
X409989000Y-160000000D02*
X407989000Y-160000000D01*
D10*
D11*
X409989000Y-210000000D02*
X407989000Y-210000000D01*
D10*
D11*
X409989000Y-260000000D02*
X407989000Y-260000000D01*
D10*
D11*
X408679476Y-35216666D02*
X409298523Y-35216666D01*
X408555666Y-35588095D02*
X408989000Y-34288095D01*
X409422333Y-35588095D01*
D10*
D11*
X409081857Y-84907142D02*
X409267571Y-84969047D01*
X409329476Y-85030952D01*
X409391380Y-85154761D01*
X409391380Y-85340476D01*
X409329476Y-85464285D01*
X409267571Y-85526190D01*
X409143761Y-85588095D01*
X408648523Y-85588095D01*
X408648523Y-84288095D01*
X409081857Y-84288095D01*
X409205666Y-84350000D01*
X409267571Y-84411904D01*
X409329476Y-84535714D01*
X409329476Y-84659523D01*
X409267571Y-84783333D01*
X409205666Y-84845238D01*
X409081857Y-84907142D01*
X408648523Y-84907142D01*
D10*
D11*
X409391380Y-135464285D02*
X409329476Y-135526190D01*
X409143761Y-135588095D01*
X409019952Y-135588095D01*
X408834238Y-135526190D01*
X408710428Y-135402380D01*
X408648523Y-135278571D01*
X408586619Y-135030952D01*
X408586619Y-134845238D01*
X408648523Y-134597619D01*
X408710428Y-134473809D01*
X408834238Y-134350000D01*
X409019952Y-134288095D01*
X409143761Y-134288095D01*
X409329476Y-134350000D01*
X409391380Y-134411904D01*
D10*
D11*
X408648523Y-185588095D02*
X408648523Y-184288095D01*
X408958047Y-184288095D01*
X409143761Y-184350000D01*
X409267571Y-184473809D01*
X409329476Y-184597619D01*
X409391380Y-184845238D01*
X409391380Y-185030952D01*
X409329476Y-185278571D01*
X409267571Y-185402380D01*
X409143761Y-185526190D01*
X408958047Y-185588095D01*
X408648523Y-185588095D01*
D10*
D11*
X408710428Y-234907142D02*
X409143761Y-234907142D01*
X409329476Y-235588095D02*
X408710428Y-235588095D01*
X408710428Y-234288095D01*
X409329476Y-234288095D01*
D10*
D11*
X409174714Y-284907142D02*
X408741380Y-284907142D01*
X408741380Y-285588095D02*
X408741380Y-284288095D01*
X409360428Y-284288095D01*
D10*
D11*
X323421142Y-280780771D02*
X323421142Y-279280771D01*
X323778285Y-279280771D01*
X323992571Y-279352200D01*
X324135428Y-279495057D01*
X324206857Y-279637914D01*
X324278285Y-279923628D01*
X324278285Y-280137914D01*
X324206857Y-280423628D01*
X324135428Y-280566485D01*
X323992571Y-280709342D01*
X323778285Y-280780771D01*
X323421142Y-280780771D01*
X325564000Y-280780771D02*
X325564000Y-279995057D01*
X325492571Y-279852200D01*
X325349714Y-279780771D01*
X325064000Y-279780771D01*
X324921142Y-279852200D01*
X325564000Y-280709342D02*
X325421142Y-280780771D01*
X325064000Y-280780771D01*
X324921142Y-280709342D01*
X324849714Y-280566485D01*
X324849714Y-280423628D01*
X324921142Y-280280771D01*
X325064000Y-280209342D01*
X325421142Y-280209342D01*
X325564000Y-280137914D01*
X326064000Y-279780771D02*
X326635428Y-279780771D01*
X326278285Y-279280771D02*
X326278285Y-280566485D01*
X326349714Y-280709342D01*
X326492571Y-280780771D01*
X326635428Y-280780771D01*
X327706857Y-280709342D02*
X327564000Y-280780771D01*
X327278285Y-280780771D01*
X327135428Y-280709342D01*
X327064000Y-280566485D01*
X327064000Y-279995057D01*
X327135428Y-279852200D01*
X327278285Y-279780771D01*
X327564000Y-279780771D01*
X327706857Y-279852200D01*
X327778285Y-279995057D01*
X327778285Y-280137914D01*
X327064000Y-280280771D01*
X328421142Y-280637914D02*
X328492571Y-280709342D01*
X328421142Y-280780771D01*
X328349714Y-280709342D01*
X328421142Y-280637914D01*
X328421142Y-280780771D01*
X328421142Y-279852200D02*
X328492571Y-279923628D01*
X328421142Y-279995057D01*
X328349714Y-279923628D01*
X328421142Y-279852200D01*
X328421142Y-279995057D01*
X330206857Y-279423628D02*
X330278285Y-279352200D01*
X330421142Y-279280771D01*
X330778285Y-279280771D01*
X330921142Y-279352200D01*
X330992571Y-279423628D01*
X331064000Y-279566485D01*
X331064000Y-279709342D01*
X330992571Y-279923628D01*
X330135428Y-280780771D01*
X331064000Y-280780771D01*
X331992571Y-279280771D02*
X332135428Y-279280771D01*
X332278285Y-279352200D01*
X332349714Y-279423628D01*
X332421142Y-279566485D01*
X332492571Y-279852200D01*
X332492571Y-280209342D01*
X332421142Y-280495057D01*
X332349714Y-280637914D01*
X332278285Y-280709342D01*
X332135428Y-280780771D01*
X331992571Y-280780771D01*
X331849714Y-280709342D01*
X331778285Y-280637914D01*
X331706857Y-280495057D01*
X331635428Y-280209342D01*
X331635428Y-279852200D01*
X331706857Y-279566485D01*
X331778285Y-279423628D01*
X331849714Y-279352200D01*
X331992571Y-279280771D01*
X333064000Y-279423628D02*
X333135428Y-279352200D01*
X333278285Y-279280771D01*
X333635428Y-279280771D01*
X333778285Y-279352200D01*
X333849714Y-279423628D01*
X333921142Y-279566485D01*
X333921142Y-279709342D01*
X333849714Y-279923628D01*
X332992571Y-280780771D01*
X333921142Y-280780771D01*
X334492571Y-279423628D02*
X334564000Y-279352200D01*
X334706857Y-279280771D01*
X335064000Y-279280771D01*
X335206857Y-279352200D01*
X335278285Y-279423628D01*
X335349714Y-279566485D01*
X335349714Y-279709342D01*
X335278285Y-279923628D01*
X334421142Y-280780771D01*
X335349714Y-280780771D01*
X335992571Y-280209342D02*
X337135428Y-280209342D01*
X338135428Y-279280771D02*
X338278285Y-279280771D01*
X338421142Y-279352200D01*
X338492571Y-279423628D01*
X338564000Y-279566485D01*
X338635428Y-279852200D01*
X338635428Y-280209342D01*
X338564000Y-280495057D01*
X338492571Y-280637914D01*
X338421142Y-280709342D01*
X338278285Y-280780771D01*
X338135428Y-280780771D01*
X337992571Y-280709342D01*
X337921142Y-280637914D01*
X337849714Y-280495057D01*
X337778285Y-280209342D01*
X337778285Y-279852200D01*
X337849714Y-279566485D01*
X337921142Y-279423628D01*
X337992571Y-279352200D01*
X338135428Y-279280771D01*
X340064000Y-280780771D02*
X339206857Y-280780771D01*
X339635428Y-280780771D02*
X339635428Y-279280771D01*
X339492571Y-279495057D01*
X339349714Y-279637914D01*
X339206857Y-279709342D01*
X340706857Y-280209342D02*
X341849714Y-280209342D01*
X342849714Y-279280771D02*
X342992571Y-279280771D01*
X343135428Y-279352200D01*
X343206857Y-279423628D01*
X343278285Y-279566485D01*
X343349714Y-279852200D01*
X343349714Y-280209342D01*
X343278285Y-280495057D01*
X343206857Y-280637914D01*
X343135428Y-280709342D01*
X342992571Y-280780771D01*
X342849714Y-280780771D01*
X342706857Y-280709342D01*
X342635428Y-280637914D01*
X342564000Y-280495057D01*
X342492571Y-280209342D01*
X342492571Y-279852200D01*
X342564000Y-279566485D01*
X342635428Y-279423628D01*
X342706857Y-279352200D01*
X342849714Y-279280771D01*
X344778285Y-280780771D02*
X343921142Y-280780771D01*
X344349714Y-280780771D02*
X344349714Y-279280771D01*
X344206857Y-279495057D01*
X344064000Y-279637914D01*
X343921142Y-279709342D01*
D10*
D11*
X299989000Y-281502200D02*
X407989000Y-281502200D01*
D10*
D11*
X301421142Y-283580771D02*
X301421142Y-282080771D01*
X302278285Y-283580771D02*
X301635428Y-282723628D01*
X302278285Y-282080771D02*
X301421142Y-282937914D01*
X302921142Y-283580771D02*
X302921142Y-282580771D01*
X302921142Y-282080771D02*
X302849714Y-282152200D01*
X302921142Y-282223628D01*
X302992571Y-282152200D01*
X302921142Y-282080771D01*
X302921142Y-282223628D01*
X304492571Y-283437914D02*
X304421142Y-283509342D01*
X304206857Y-283580771D01*
X304064000Y-283580771D01*
X303849714Y-283509342D01*
X303706857Y-283366485D01*
X303635428Y-283223628D01*
X303564000Y-282937914D01*
X303564000Y-282723628D01*
X303635428Y-282437914D01*
X303706857Y-282295057D01*
X303849714Y-282152200D01*
X304064000Y-282080771D01*
X304206857Y-282080771D01*
X304421142Y-282152200D01*
X304492571Y-282223628D01*
X305778285Y-283580771D02*
X305778285Y-282795057D01*
X305706857Y-282652200D01*
X305564000Y-282580771D01*
X305278285Y-282580771D01*
X305135428Y-282652200D01*
X305778285Y-283509342D02*
X305635428Y-283580771D01*
X305278285Y-283580771D01*
X305135428Y-283509342D01*
X305064000Y-283366485D01*
X305064000Y-283223628D01*
X305135428Y-283080771D01*
X305278285Y-283009342D01*
X305635428Y-283009342D01*
X305778285Y-282937914D01*
X307135428Y-283580771D02*
X307135428Y-282080771D01*
X307135428Y-283509342D02*
X306992571Y-283580771D01*
X306706857Y-283580771D01*
X306564000Y-283509342D01*
X306492571Y-283437914D01*
X306421142Y-283295057D01*
X306421142Y-282866485D01*
X306492571Y-282723628D01*
X306564000Y-282652200D01*
X306706857Y-282580771D01*
X306992571Y-282580771D01*
X307135428Y-282652200D01*
X308992571Y-282795057D02*
X309492571Y-282795057D01*
X309706857Y-283580771D02*
X308992571Y-283580771D01*
X308992571Y-282080771D01*
X309706857Y-282080771D01*
X310349714Y-283437914D02*
X310421142Y-283509342D01*
X310349714Y-283580771D01*
X310278285Y-283509342D01*
X310349714Y-283437914D01*
X310349714Y-283580771D01*
X311064000Y-283580771D02*
X311064000Y-282080771D01*
X311421142Y-282080771D01*
X311635428Y-282152200D01*
X311778285Y-282295057D01*
X311849714Y-282437914D01*
X311921142Y-282723628D01*
X311921142Y-282937914D01*
X311849714Y-283223628D01*
X311778285Y-283366485D01*
X311635428Y-283509342D01*
X311421142Y-283580771D01*
X311064000Y-283580771D01*
X312564000Y-283437914D02*
X312635428Y-283509342D01*
X312564000Y-283580771D01*
X312492571Y-283509342D01*
X312564000Y-283437914D01*
X312564000Y-283580771D01*
X313206857Y-283152200D02*
X313921142Y-283152200D01*
X313064000Y-283580771D02*
X313564000Y-282080771D01*
X314064000Y-283580771D01*
X314564000Y-283437914D02*
X314635428Y-283509342D01*
X314564000Y-283580771D01*
X314492571Y-283509342D01*
X314564000Y-283437914D01*
X314564000Y-283580771D01*
X317564000Y-283580771D02*
X317564000Y-282080771D01*
X317706857Y-283009342D02*
X318135428Y-283580771D01*
X318135428Y-282580771D02*
X317564000Y-283152200D01*
X318778285Y-283580771D02*
X318778285Y-282580771D01*
X318778285Y-282080771D02*
X318706857Y-282152200D01*
X318778285Y-282223628D01*
X318849714Y-282152200D01*
X318778285Y-282080771D01*
X318778285Y-282223628D01*
X320135428Y-283509342D02*
X319992571Y-283580771D01*
X319706857Y-283580771D01*
X319564000Y-283509342D01*
X319492571Y-283437914D01*
X319421142Y-283295057D01*
X319421142Y-282866485D01*
X319492571Y-282723628D01*
X319564000Y-282652200D01*
X319706857Y-282580771D01*
X319992571Y-282580771D01*
X320135428Y-282652200D01*
X321421142Y-283580771D02*
X321421142Y-282795057D01*
X321349714Y-282652200D01*
X321206857Y-282580771D01*
X320921142Y-282580771D01*
X320778285Y-282652200D01*
X321421142Y-283509342D02*
X321278285Y-283580771D01*
X320921142Y-283580771D01*
X320778285Y-283509342D01*
X320706857Y-283366485D01*
X320706857Y-283223628D01*
X320778285Y-283080771D01*
X320921142Y-283009342D01*
X321278285Y-283009342D01*
X321421142Y-282937914D01*
X322778285Y-283580771D02*
X322778285Y-282080771D01*
X322778285Y-283509342D02*
X322635428Y-283580771D01*
X322349714Y-283580771D01*
X322206857Y-283509342D01*
X322135428Y-283437914D01*
X322064000Y-283295057D01*
X322064000Y-282866485D01*
X322135428Y-282723628D01*
X322206857Y-282652200D01*
X322349714Y-282580771D01*
X322635428Y-282580771D01*
X322778285Y-282652200D01*
X325064000Y-284152200D02*
X324992571Y-284080771D01*
X324849714Y-283866485D01*
X324778285Y-283723628D01*
X324706857Y-283509342D01*
X324635428Y-283152200D01*
X324635428Y-282866485D01*
X324706857Y-282509342D01*
X324778285Y-282295057D01*
X324849714Y-282152200D01*
X324992571Y-281937914D01*
X325064000Y-281866485D01*
X326278285Y-282080771D02*
X325992571Y-282080771D01*
X325849714Y-282152200D01*
X325778285Y-282223628D01*
X325635428Y-282437914D01*
X325564000Y-282723628D01*
X325564000Y-283295057D01*
X325635428Y-283437914D01*
X325706857Y-283509342D01*
X325849714Y-283580771D01*
X326135428Y-283580771D01*
X326278285Y-283509342D01*
X326349714Y-283437914D01*
X326421142Y-283295057D01*
X326421142Y-282937914D01*
X326349714Y-282795057D01*
X326278285Y-282723628D01*
X326135428Y-282652200D01*
X325849714Y-282652200D01*
X325706857Y-282723628D01*
X325635428Y-282795057D01*
X325564000Y-282937914D01*
X327064000Y-283437914D02*
X327135428Y-283509342D01*
X327064000Y-283580771D01*
X326992571Y-283509342D01*
X327064000Y-283437914D01*
X327064000Y-283580771D01*
X328064000Y-282080771D02*
X328206857Y-282080771D01*
X328349714Y-282152200D01*
X328421142Y-282223628D01*
X328492571Y-282366485D01*
X328564000Y-282652200D01*
X328564000Y-283009342D01*
X328492571Y-283295057D01*
X328421142Y-283437914D01*
X328349714Y-283509342D01*
X328206857Y-283580771D01*
X328064000Y-283580771D01*
X327921142Y-283509342D01*
X327849714Y-283437914D01*
X327778285Y-283295057D01*
X327706857Y-283009342D01*
X327706857Y-282652200D01*
X327778285Y-282366485D01*
X327849714Y-282223628D01*
X327921142Y-282152200D01*
X328064000Y-282080771D01*
X329206857Y-283437914D02*
X329278285Y-283509342D01*
X329206857Y-283580771D01*
X329135428Y-283509342D01*
X329206857Y-283437914D01*
X329206857Y-283580771D01*
X330206857Y-282080771D02*
X330349714Y-282080771D01*
X330492571Y-282152200D01*
X330564000Y-282223628D01*
X330635428Y-282366485D01*
X330706857Y-282652200D01*
X330706857Y-283009342D01*
X330635428Y-283295057D01*
X330564000Y-283437914D01*
X330492571Y-283509342D01*
X330349714Y-283580771D01*
X330206857Y-283580771D01*
X330064000Y-283509342D01*
X329992571Y-283437914D01*
X329921142Y-283295057D01*
X329849714Y-283009342D01*
X329849714Y-282652200D01*
X329921142Y-282366485D01*
X329992571Y-282223628D01*
X330064000Y-282152200D01*
X330206857Y-282080771D01*
X331206857Y-284152200D02*
X331278285Y-284080771D01*
X331421142Y-283866485D01*
X331492571Y-283723628D01*
X331564000Y-283509342D01*
X331635428Y-283152200D01*
X331635428Y-282866485D01*
X331564000Y-282509342D01*
X331492571Y-282295057D01*
X331421142Y-282152200D01*
X331278285Y-281937914D01*
X331206857Y-281866485D01*
D10*
D11*
X299989000Y-278502200D02*
X407989000Y-278502200D01*
D10*
D12*
X387398285Y-280780771D02*
X386898285Y-280066485D01*
X386541142Y-280780771D02*
X386541142Y-279280771D01*
X387112571Y-279280771D01*
X387255428Y-279352200D01*
X387326857Y-279423628D01*
X387398285Y-279566485D01*
X387398285Y-279780771D01*
X387326857Y-279923628D01*
X387255428Y-279995057D01*
X387112571Y-280066485D01*
X386541142Y-280066485D01*
X388612571Y-280709342D02*
X388469714Y-280780771D01*
X388184000Y-280780771D01*
X388041142Y-280709342D01*
X387969714Y-280566485D01*
X387969714Y-279995057D01*
X388041142Y-279852200D01*
X388184000Y-279780771D01*
X388469714Y-279780771D01*
X388612571Y-279852200D01*
X388684000Y-279995057D01*
X388684000Y-280137914D01*
X387969714Y-280280771D01*
X389184000Y-279780771D02*
X389541142Y-280780771D01*
X389898285Y-279780771D01*
X390469714Y-280637914D02*
X390541142Y-280709342D01*
X390469714Y-280780771D01*
X390398285Y-280709342D01*
X390469714Y-280637914D01*
X390469714Y-280780771D01*
X390469714Y-279852200D02*
X390541142Y-279923628D01*
X390469714Y-279995057D01*
X390398285Y-279923628D01*
X390469714Y-279852200D01*
X390469714Y-279995057D01*
X392612571Y-279280771D02*
X392755428Y-279280771D01*
X392898285Y-279352200D01*
X392969714Y-279423628D01*
X393041142Y-279566485D01*
X393112571Y-279852200D01*
X393112571Y-280209342D01*
X393041142Y-280495057D01*
X392969714Y-280637914D01*
X392898285Y-280709342D01*
X392755428Y-280780771D01*
X392612571Y-280780771D01*
X392469714Y-280709342D01*
X392398285Y-280637914D01*
X392326857Y-280495057D01*
X392255428Y-280209342D01*
X392255428Y-279852200D01*
X392326857Y-279566485D01*
X392398285Y-279423628D01*
X392469714Y-279352200D01*
X392612571Y-279280771D01*
X393684000Y-280352200D02*
X394398285Y-280352200D01*
X393541142Y-280780771D02*
X394041142Y-279280771D01*
X394541142Y-280780771D01*
D10*
D11*
X301349714Y-280709342D02*
X301564000Y-280780771D01*
X301921142Y-280780771D01*
X302064000Y-280709342D01*
X302135428Y-280637914D01*
X302206857Y-280495057D01*
X302206857Y-280352200D01*
X302135428Y-280209342D01*
X302064000Y-280137914D01*
X301921142Y-280066485D01*
X301635428Y-279995057D01*
X301492571Y-279923628D01*
X301421142Y-279852200D01*
X301349714Y-279709342D01*
X301349714Y-279566485D01*
X301421142Y-279423628D01*
X301492571Y-279352200D01*
X301635428Y-279280771D01*
X301992571Y-279280771D01*
X302206857Y-279352200D01*
X302849714Y-280780771D02*
X302849714Y-279780771D01*
X302849714Y-279280771D02*
X302778285Y-279352200D01*
X302849714Y-279423628D01*
X302921142Y-279352200D01*
X302849714Y-279280771D01*
X302849714Y-279423628D01*
X303421142Y-279780771D02*
X304206857Y-279780771D01*
X303421142Y-280780771D01*
X304206857Y-280780771D01*
X305349714Y-280709342D02*
X305206857Y-280780771D01*
X304921142Y-280780771D01*
X304778285Y-280709342D01*
X304706857Y-280566485D01*
X304706857Y-279995057D01*
X304778285Y-279852200D01*
X304921142Y-279780771D01*
X305206857Y-279780771D01*
X305349714Y-279852200D01*
X305421142Y-279995057D01*
X305421142Y-280137914D01*
X304706857Y-280280771D01*
X306064000Y-280637914D02*
X306135428Y-280709342D01*
X306064000Y-280780771D01*
X305992571Y-280709342D01*
X306064000Y-280637914D01*
X306064000Y-280780771D01*
X306064000Y-279852200D02*
X306135428Y-279923628D01*
X306064000Y-279995057D01*
X305992571Y-279923628D01*
X306064000Y-279852200D01*
X306064000Y-279995057D01*
X307849714Y-280352200D02*
X308564000Y-280352200D01*
X307706857Y-280780771D02*
X308206857Y-279280771D01*
X308706857Y-280780771D01*
X309064000Y-279280771D02*
X309992571Y-279280771D01*
X309492571Y-279852200D01*
X309706857Y-279852200D01*
X309849714Y-279923628D01*
X309921142Y-279995057D01*
X309992571Y-280137914D01*
X309992571Y-280495057D01*
X309921142Y-280637914D01*
X309849714Y-280709342D01*
X309706857Y-280780771D01*
X309278285Y-280780771D01*
X309135428Y-280709342D01*
X309064000Y-280637914D01*
D10*
D11*
X386421142Y-283580771D02*
X386421142Y-282080771D01*
X387778285Y-283580771D02*
X387778285Y-282080771D01*
X387778285Y-283509342D02*
X387635428Y-283580771D01*
X387349714Y-283580771D01*
X387206857Y-283509342D01*
X387135428Y-283437914D01*
X387064000Y-283295057D01*
X387064000Y-282866485D01*
X387135428Y-282723628D01*
X387206857Y-282652200D01*
X387349714Y-282580771D01*
X387635428Y-282580771D01*
X387778285Y-282652200D01*
X388492571Y-283437914D02*
X388564000Y-283509342D01*
X388492571Y-283580771D01*
X388421142Y-283509342D01*
X388492571Y-283437914D01*
X388492571Y-283580771D01*
X388492571Y-282652200D02*
X388564000Y-282723628D01*
X388492571Y-282795057D01*
X388421142Y-282723628D01*
X388492571Y-282652200D01*
X388492571Y-282795057D01*
X391135428Y-283580771D02*
X390278285Y-283580771D01*
X390706857Y-283580771D02*
X390706857Y-282080771D01*
X390564000Y-282295057D01*
X390421142Y-282437914D01*
X390278285Y-282509342D01*
X392849714Y-282009342D02*
X391564000Y-283937914D01*
X394135428Y-283580771D02*
X393278285Y-283580771D01*
X393706857Y-283580771D02*
X393706857Y-282080771D01*
X393564000Y-282295057D01*
X393421142Y-282437914D01*
X393278285Y-282509342D01*
D10*
D11*
X299989000Y-274502200D02*
X407989000Y-274502200D01*
D10*
D13*
X301701380Y-275206961D02*
X302844238Y-275206961D01*
X302022809Y-277206961D02*
X302272809Y-275206961D01*
X303260904Y-277206961D02*
X303427571Y-275873628D01*
X303510904Y-275206961D02*
X303403761Y-275302200D01*
X303487095Y-275397438D01*
X303594238Y-275302200D01*
X303510904Y-275206961D01*
X303487095Y-275397438D01*
X304094238Y-275873628D02*
X304856142Y-275873628D01*
X304463285Y-275206961D02*
X304249000Y-276921247D01*
X304320428Y-277111723D01*
X304499000Y-277206961D01*
X304689476Y-277206961D01*
X305641857Y-277206961D02*
X305463285Y-277111723D01*
X305391857Y-276921247D01*
X305606142Y-275206961D01*
X307177571Y-277111723D02*
X306975190Y-277206961D01*
X306594238Y-277206961D01*
X306415666Y-277111723D01*
X306344238Y-276921247D01*
X306439476Y-276159342D01*
X306558523Y-275968866D01*
X306760904Y-275873628D01*
X307141857Y-275873628D01*
X307320428Y-275968866D01*
X307391857Y-276159342D01*
X307368047Y-276349819D01*
X306391857Y-276540295D01*
X308141857Y-277016485D02*
X308225190Y-277111723D01*
X308118047Y-277206961D01*
X308034714Y-277111723D01*
X308141857Y-277016485D01*
X308118047Y-277206961D01*
X308272809Y-275968866D02*
X308356142Y-276064104D01*
X308249000Y-276159342D01*
X308165666Y-276064104D01*
X308272809Y-275968866D01*
X308249000Y-276159342D01*
X310594238Y-277206961D02*
X310844238Y-275206961D01*
X311737095Y-277206961D01*
X311987095Y-275206961D01*
X312820428Y-275397438D02*
X312927571Y-275302200D01*
X313129952Y-275206961D01*
X313606142Y-275206961D01*
X313784714Y-275302200D01*
X313868047Y-275397438D01*
X313939476Y-275587914D01*
X313915666Y-275778390D01*
X313784714Y-276064104D01*
X312499000Y-277206961D01*
X313737095Y-277206961D01*
X315225190Y-275206961D02*
X315415666Y-275206961D01*
X315594238Y-275302200D01*
X315677571Y-275397438D01*
X315749000Y-275587914D01*
X315796619Y-275968866D01*
X315737095Y-276445057D01*
X315594238Y-276826009D01*
X315475190Y-277016485D01*
X315368047Y-277111723D01*
X315165666Y-277206961D01*
X314975190Y-277206961D01*
X314796619Y-277111723D01*
X314713285Y-277016485D01*
X314641857Y-276826009D01*
X314594238Y-276445057D01*
X314653761Y-275968866D01*
X314796619Y-275587914D01*
X314915666Y-275397438D01*
X315022809Y-275302200D01*
X315225190Y-275206961D01*
X318820428Y-276159342D02*
X318153761Y-276159342D01*
X318022809Y-277206961D02*
X318272809Y-275206961D01*
X319225190Y-275206961D01*
X319713285Y-276635533D02*
X320665666Y-276635533D01*
X319451380Y-277206961D02*
X320368047Y-275206961D01*
X320784714Y-277206961D01*
X322618047Y-277016485D02*
X322510904Y-277111723D01*
X322213285Y-277206961D01*
X322022809Y-277206961D01*
X321749000Y-277111723D01*
X321582333Y-276921247D01*
X321510904Y-276730771D01*
X321463285Y-276349819D01*
X321499000Y-276064104D01*
X321641857Y-275683152D01*
X321760904Y-275492676D01*
X321975190Y-275302200D01*
X322272809Y-275206961D01*
X322463285Y-275206961D01*
X322737095Y-275302200D01*
X322820428Y-275397438D01*
X323582333Y-276159342D02*
X324249000Y-276159342D01*
X324403761Y-277206961D02*
X323451380Y-277206961D01*
X323701380Y-275206961D01*
X324653761Y-275206961D01*
X325260904Y-277206961D02*
X325510904Y-275206961D01*
X326272809Y-275206961D01*
X326451380Y-275302200D01*
X326534714Y-275397438D01*
X326606142Y-275587914D01*
X326570428Y-275873628D01*
X326451380Y-276064104D01*
X326344238Y-276159342D01*
X326141857Y-276254580D01*
X325379952Y-276254580D01*
X328213285Y-277206961D02*
X327260904Y-277206961D01*
X327510904Y-275206961D01*
X328856142Y-276635533D02*
X329808523Y-276635533D01*
X328594238Y-277206961D02*
X329510904Y-275206961D01*
X329927571Y-277206961D01*
X330558523Y-275206961D02*
X331701380Y-275206961D01*
X330879952Y-277206961D02*
X331129952Y-275206961D01*
X332249000Y-276159342D02*
X332915666Y-276159342D01*
X333070428Y-277206961D02*
X332118047Y-277206961D01*
X332368047Y-275206961D01*
X333320428Y-275206961D01*
D10*
D11*
X301921142Y-272595057D02*
X301421142Y-272595057D01*
X301421142Y-273380771D02*
X301421142Y-271880771D01*
X302135428Y-271880771D01*
X302706857Y-273380771D02*
X302706857Y-272380771D01*
X302706857Y-271880771D02*
X302635428Y-271952200D01*
X302706857Y-272023628D01*
X302778285Y-271952200D01*
X302706857Y-271880771D01*
X302706857Y-272023628D01*
X303635428Y-273380771D02*
X303492571Y-273309342D01*
X303421142Y-273166485D01*
X303421142Y-271880771D01*
X304778285Y-273309342D02*
X304635428Y-273380771D01*
X304349714Y-273380771D01*
X304206857Y-273309342D01*
X304135428Y-273166485D01*
X304135428Y-272595057D01*
X304206857Y-272452200D01*
X304349714Y-272380771D01*
X304635428Y-272380771D01*
X304778285Y-272452200D01*
X304849714Y-272595057D01*
X304849714Y-272737914D01*
X304135428Y-272880771D01*
X305492571Y-273237914D02*
X305564000Y-273309342D01*
X305492571Y-273380771D01*
X305421142Y-273309342D01*
X305492571Y-273237914D01*
X305492571Y-273380771D01*
X305492571Y-272452200D02*
X305564000Y-272523628D01*
X305492571Y-272595057D01*
X305421142Y-272523628D01*
X305492571Y-272452200D01*
X305492571Y-272595057D01*
X307349714Y-273380771D02*
X307349714Y-271880771D01*
X308206857Y-273380771D01*
X308206857Y-271880771D01*
X308849714Y-272023628D02*
X308921142Y-271952200D01*
X309064000Y-271880771D01*
X309421142Y-271880771D01*
X309564000Y-271952200D01*
X309635428Y-272023628D01*
X309706857Y-272166485D01*
X309706857Y-272309342D01*
X309635428Y-272523628D01*
X308778285Y-273380771D01*
X309706857Y-273380771D01*
X310635428Y-271880771D02*
X310778285Y-271880771D01*
X310921142Y-271952200D01*
X310992571Y-272023628D01*
X311064000Y-272166485D01*
X311135428Y-272452200D01*
X311135428Y-272809342D01*
X311064000Y-273095057D01*
X310992571Y-273237914D01*
X310921142Y-273309342D01*
X310778285Y-273380771D01*
X310635428Y-273380771D01*
X310492571Y-273309342D01*
X310421142Y-273237914D01*
X310349714Y-273095057D01*
X310278285Y-272809342D01*
X310278285Y-272452200D01*
X310349714Y-272166485D01*
X310421142Y-272023628D01*
X310492571Y-271952200D01*
X310635428Y-271880771D01*
X311421142Y-273523628D02*
X312564000Y-273523628D01*
X313421142Y-272595057D02*
X312921142Y-272595057D01*
X312921142Y-273380771D02*
X312921142Y-271880771D01*
X313635428Y-271880771D01*
X314135428Y-272952200D02*
X314849714Y-272952200D01*
X313992571Y-273380771D02*
X314492571Y-271880771D01*
X314992571Y-273380771D01*
X316349714Y-273237914D02*
X316278285Y-273309342D01*
X316064000Y-273380771D01*
X315921142Y-273380771D01*
X315706857Y-273309342D01*
X315564000Y-273166485D01*
X315492571Y-273023628D01*
X315421142Y-272737914D01*
X315421142Y-272523628D01*
X315492571Y-272237914D01*
X315564000Y-272095057D01*
X315706857Y-271952200D01*
X315921142Y-271880771D01*
X316064000Y-271880771D01*
X316278285Y-271952200D01*
X316349714Y-272023628D01*
X316992571Y-272595057D02*
X317492571Y-272595057D01*
X317706857Y-273380771D02*
X316992571Y-273380771D01*
X316992571Y-271880771D01*
X317706857Y-271880771D01*
X318349714Y-273380771D02*
X318349714Y-271880771D01*
X318921142Y-271880771D01*
X319064000Y-271952200D01*
X319135428Y-272023628D01*
X319206857Y-272166485D01*
X319206857Y-272380771D01*
X319135428Y-272523628D01*
X319064000Y-272595057D01*
X318921142Y-272666485D01*
X318349714Y-272666485D01*
X320564000Y-273380771D02*
X319849714Y-273380771D01*
X319849714Y-271880771D01*
X320992571Y-272952200D02*
X321706857Y-272952200D01*
X320849714Y-273380771D02*
X321349714Y-271880771D01*
X321849714Y-273380771D01*
X322135428Y-271880771D02*
X322992571Y-271880771D01*
X322564000Y-273380771D02*
X322564000Y-271880771D01*
X323492571Y-272595057D02*
X323992571Y-272595057D01*
X324206857Y-273380771D02*
X323492571Y-273380771D01*
X323492571Y-271880771D01*
X324206857Y-271880771D01*
X324849714Y-273237914D02*
X324921142Y-273309342D01*
X324849714Y-273380771D01*
X324778285Y-273309342D01*
X324849714Y-273237914D01*
X324849714Y-273380771D01*
X325564000Y-273380771D02*
X325564000Y-271880771D01*
X325706857Y-272809342D02*
X326135428Y-273380771D01*
X326135428Y-272380771D02*
X325564000Y-272952200D01*
X326778285Y-273380771D02*
X326778285Y-272380771D01*
X326778285Y-271880771D02*
X326706857Y-271952200D01*
X326778285Y-272023628D01*
X326849714Y-271952200D01*
X326778285Y-271880771D01*
X326778285Y-272023628D01*
X328135428Y-273309342D02*
X327992571Y-273380771D01*
X327706857Y-273380771D01*
X327564000Y-273309342D01*
X327492571Y-273237914D01*
X327421142Y-273095057D01*
X327421142Y-272666485D01*
X327492571Y-272523628D01*
X327564000Y-272452200D01*
X327706857Y-272380771D01*
X327992571Y-272380771D01*
X328135428Y-272452200D01*
X329421142Y-273380771D02*
X329421142Y-272595057D01*
X329349714Y-272452200D01*
X329206857Y-272380771D01*
X328921142Y-272380771D01*
X328778285Y-272452200D01*
X329421142Y-273309342D02*
X329278285Y-273380771D01*
X328921142Y-273380771D01*
X328778285Y-273309342D01*
X328706857Y-273166485D01*
X328706857Y-273023628D01*
X328778285Y-272880771D01*
X328921142Y-272809342D01*
X329278285Y-272809342D01*
X329421142Y-272737914D01*
X330778285Y-273380771D02*
X330778285Y-271880771D01*
X330778285Y-273309342D02*
X330635428Y-273380771D01*
X330349714Y-273380771D01*
X330206857Y-273309342D01*
X330135428Y-273237914D01*
X330064000Y-273095057D01*
X330064000Y-272666485D01*
X330135428Y-272523628D01*
X330206857Y-272452200D01*
X330349714Y-272380771D01*
X330635428Y-272380771D01*
X330778285Y-272452200D01*
X331135428Y-273523628D02*
X332278285Y-273523628D01*
X332635428Y-272380771D02*
X332635428Y-273880771D01*
X332635428Y-272452200D02*
X332778285Y-272380771D01*
X333064000Y-272380771D01*
X333206857Y-272452200D01*
X333278285Y-272523628D01*
X333349714Y-272666485D01*
X333349714Y-273095057D01*
X333278285Y-273237914D01*
X333206857Y-273309342D01*
X333064000Y-273380771D01*
X332778285Y-273380771D01*
X332635428Y-273309342D01*
X334635428Y-273309342D02*
X334492571Y-273380771D01*
X334206857Y-273380771D01*
X334064000Y-273309342D01*
X333992571Y-273237914D01*
X333921142Y-273095057D01*
X333921142Y-272666485D01*
X333992571Y-272523628D01*
X334064000Y-272452200D01*
X334206857Y-272380771D01*
X334492571Y-272380771D01*
X334635428Y-272452200D01*
X335278285Y-273380771D02*
X335278285Y-271880771D01*
X335278285Y-272452200D02*
X335421142Y-272380771D01*
X335706857Y-272380771D01*
X335849714Y-272452200D01*
X335921142Y-272523628D01*
X335992571Y-272666485D01*
X335992571Y-273095057D01*
X335921142Y-273237914D01*
X335849714Y-273309342D01*
X335706857Y-273380771D01*
X335421142Y-273380771D01*
X335278285Y-273309342D01*
D10*
D11*
X299989000Y-268502200D02*
X407989000Y-268502200D01*
D10*
D11*
X301349714Y-270609342D02*
X301564000Y-270680771D01*
X301921142Y-270680771D01*
X302064000Y-270609342D01*
X302135428Y-270537914D01*
X302206857Y-270395057D01*
X302206857Y-270252200D01*
X302135428Y-270109342D01*
X302064000Y-270037914D01*
X301921142Y-269966485D01*
X301635428Y-269895057D01*
X301492571Y-269823628D01*
X301421142Y-269752200D01*
X301349714Y-269609342D01*
X301349714Y-269466485D01*
X301421142Y-269323628D01*
X301492571Y-269252200D01*
X301635428Y-269180771D01*
X301992571Y-269180771D01*
X302206857Y-269252200D01*
X302849714Y-270680771D02*
X302849714Y-269180771D01*
X303492571Y-270680771D02*
X303492571Y-269895057D01*
X303421142Y-269752200D01*
X303278285Y-269680771D01*
X303064000Y-269680771D01*
X302921142Y-269752200D01*
X302849714Y-269823628D01*
X304778285Y-270609342D02*
X304635428Y-270680771D01*
X304349714Y-270680771D01*
X304206857Y-270609342D01*
X304135428Y-270466485D01*
X304135428Y-269895057D01*
X304206857Y-269752200D01*
X304349714Y-269680771D01*
X304635428Y-269680771D01*
X304778285Y-269752200D01*
X304849714Y-269895057D01*
X304849714Y-270037914D01*
X304135428Y-270180771D01*
X306064000Y-270609342D02*
X305921142Y-270680771D01*
X305635428Y-270680771D01*
X305492571Y-270609342D01*
X305421142Y-270466485D01*
X305421142Y-269895057D01*
X305492571Y-269752200D01*
X305635428Y-269680771D01*
X305921142Y-269680771D01*
X306064000Y-269752200D01*
X306135428Y-269895057D01*
X306135428Y-270037914D01*
X305421142Y-270180771D01*
X306564000Y-269680771D02*
X307135428Y-269680771D01*
X306778285Y-269180771D02*
X306778285Y-270466485D01*
X306849714Y-270609342D01*
X306992571Y-270680771D01*
X307135428Y-270680771D01*
X307635428Y-270537914D02*
X307706857Y-270609342D01*
X307635428Y-270680771D01*
X307564000Y-270609342D01*
X307635428Y-270537914D01*
X307635428Y-270680771D01*
X307635428Y-269752200D02*
X307706857Y-269823628D01*
X307635428Y-269895057D01*
X307564000Y-269823628D01*
X307635428Y-269752200D01*
X307635428Y-269895057D01*
D10*
D12*
X302398285Y-267537914D02*
X302326857Y-267609342D01*
X302112571Y-267680771D01*
X301969714Y-267680771D01*
X301755428Y-267609342D01*
X301612571Y-267466485D01*
X301541142Y-267323628D01*
X301469714Y-267037914D01*
X301469714Y-266823628D01*
X301541142Y-266537914D01*
X301612571Y-266395057D01*
X301755428Y-266252200D01*
X301969714Y-266180771D01*
X302112571Y-266180771D01*
X302326857Y-266252200D01*
X302398285Y-266323628D01*
X303541142Y-266895057D02*
X303755428Y-266966485D01*
X303826857Y-267037914D01*
X303898285Y-267180771D01*
X303898285Y-267395057D01*
X303826857Y-267537914D01*
X303755428Y-267609342D01*
X303612571Y-267680771D01*
X303041142Y-267680771D01*
X303041142Y-266180771D01*
X303541142Y-266180771D01*
X303684000Y-266252200D01*
X303755428Y-266323628D01*
X303826857Y-266466485D01*
X303826857Y-266609342D01*
X303755428Y-266752200D01*
X303684000Y-266823628D01*
X303541142Y-266895057D01*
X303041142Y-266895057D01*
X304541142Y-267109342D02*
X305684000Y-267109342D01*
X306184000Y-266180771D02*
X307041142Y-266180771D01*
X306612571Y-267680771D02*
X306612571Y-266180771D01*
X307541142Y-266895057D02*
X308041142Y-266895057D01*
X308255428Y-267680771D02*
X307541142Y-267680771D01*
X307541142Y-266180771D01*
X308255428Y-266180771D01*
X309755428Y-267537914D02*
X309684000Y-267609342D01*
X309469714Y-267680771D01*
X309326857Y-267680771D01*
X309112571Y-267609342D01*
X308969714Y-267466485D01*
X308898285Y-267323628D01*
X308826857Y-267037914D01*
X308826857Y-266823628D01*
X308898285Y-266537914D01*
X308969714Y-266395057D01*
X309112571Y-266252200D01*
X309326857Y-266180771D01*
X309469714Y-266180771D01*
X309684000Y-266252200D01*
X309755428Y-266323628D01*
X310398285Y-267680771D02*
X310398285Y-266180771D01*
X310398285Y-266895057D02*
X311255428Y-266895057D01*
X311255428Y-267680771D02*
X311255428Y-266180771D01*
X311969714Y-267680771D02*
X311969714Y-266180771D01*
X312826857Y-267680771D01*
X312826857Y-266180771D01*
X313826857Y-266180771D02*
X314112571Y-266180771D01*
X314255428Y-266252200D01*
X314398285Y-266395057D01*
X314469714Y-266680771D01*
X314469714Y-267180771D01*
X314398285Y-267466485D01*
X314255428Y-267609342D01*
X314112571Y-267680771D01*
X313826857Y-267680771D01*
X313684000Y-267609342D01*
X313541142Y-267466485D01*
X313469714Y-267180771D01*
X313469714Y-266680771D01*
X313541142Y-266395057D01*
X313684000Y-266252200D01*
X313826857Y-266180771D01*
X315826857Y-267680771D02*
X315112571Y-267680771D01*
X315112571Y-266180771D01*
X316612571Y-266180771D02*
X316898285Y-266180771D01*
X317041142Y-266252200D01*
X317184000Y-266395057D01*
X317255428Y-266680771D01*
X317255428Y-267180771D01*
X317184000Y-267466485D01*
X317041142Y-267609342D01*
X316898285Y-267680771D01*
X316612571Y-267680771D01*
X316469714Y-267609342D01*
X316326857Y-267466485D01*
X316255428Y-267180771D01*
X316255428Y-266680771D01*
X316326857Y-266395057D01*
X316469714Y-266252200D01*
X316612571Y-266180771D01*
X318684000Y-266252200D02*
X318541142Y-266180771D01*
X318326857Y-266180771D01*
X318112571Y-266252200D01*
X317969714Y-266395057D01*
X317898285Y-266537914D01*
X317826857Y-266823628D01*
X317826857Y-267037914D01*
X317898285Y-267323628D01*
X317969714Y-267466485D01*
X318112571Y-267609342D01*
X318326857Y-267680771D01*
X318469714Y-267680771D01*
X318684000Y-267609342D01*
X318755428Y-267537914D01*
X318755428Y-267037914D01*
X318469714Y-267037914D01*
X319684000Y-266966485D02*
X319684000Y-267680771D01*
X319184000Y-266180771D02*
X319684000Y-266966485D01*
X320184000Y-266180771D01*
D10*
D11*
D10*
D11*
D10*
D11*
D10*
D11*
D10*
D11*
X319989000Y-278502200D02*
X319989000Y-281502200D01*
D10*
D11*
X383989000Y-278502200D02*
X383989000Y-285002200D01*
D14*
%TO.P,H10,1,1*%
%TO.N,GND*%
X210025000Y-139700000D03*
D15*
X210025000Y-139700000D03*
%TD*%
D14*
%TO.P,H8,1,1*%
%TO.N,GND*%
X190025000Y-139700000D03*
D15*
X190025000Y-139700000D03*
%TD*%
D16*
%TO.N,GND*%
X191770000Y-140970000D03*
X191770000Y-138430000D03*
X187960000Y-140970000D03*
X187960000Y-138430000D03*
X194310000Y-140970000D03*
X196850000Y-138430000D03*
X196850000Y-140970000D03*
X194310000Y-138430000D03*
X201930000Y-143510000D03*
X201930000Y-144780000D03*
X200660000Y-146050000D03*
X199390000Y-146050000D03*
X198120000Y-146050000D03*
X198120000Y-144780000D03*
X198120000Y-143510000D03*
X198120000Y-137160000D03*
X198120000Y-135890000D03*
X198120000Y-134620000D03*
X198120000Y-133350000D03*
X199390000Y-133350000D03*
X200660000Y-133350000D03*
X201930000Y-133350000D03*
X201930000Y-134620000D03*
X201930000Y-135890000D03*
X201930000Y-137160000D03*
X201930000Y-142240000D03*
X203200000Y-140970000D03*
X203200000Y-138430000D03*
X205740000Y-138430000D03*
X205740000Y-140970000D03*
X207010000Y-140970000D03*
X207010000Y-139700000D03*
X207010000Y-138430000D03*
X208280000Y-140970000D03*
X208280000Y-138430000D03*
X212090000Y-138430000D03*
X212090000Y-140970000D03*
X212090000Y-142240000D03*
X210820000Y-142240000D03*
X209550000Y-142240000D03*
X208280000Y-142240000D03*
X207010000Y-142240000D03*
X205740000Y-142240000D03*
X204470000Y-142240000D03*
X195580000Y-142240000D03*
X191770000Y-142240000D03*
X190500000Y-142240000D03*
X189230000Y-142240000D03*
X189230000Y-143510000D03*
X203200000Y-142240000D03*
X203200000Y-143510000D03*
X204470000Y-143510000D03*
X205691766Y-143507768D03*
X207010000Y-143510000D03*
X208280000Y-143510000D03*
X209550000Y-143510000D03*
X210820000Y-143510000D03*
X212090000Y-143510000D03*
X212090000Y-144780000D03*
X210820000Y-144780000D03*
X209550000Y-144780000D03*
X208280000Y-144780000D03*
X207010000Y-144780000D03*
X205740000Y-144780000D03*
X204470000Y-144780000D03*
X203200000Y-144780000D03*
X201930000Y-146050000D03*
X203200000Y-146050000D03*
X204470000Y-146050000D03*
X205740000Y-146050000D03*
X208280000Y-146050000D03*
X207010000Y-146050000D03*
X209550000Y-146050000D03*
X210820000Y-146050000D03*
X212090000Y-146050000D03*
X212090000Y-137160000D03*
X210820000Y-137160000D03*
X209550000Y-137160000D03*
X208280000Y-137160000D03*
X207010000Y-137160000D03*
X205740000Y-137160000D03*
X204470000Y-137160000D03*
X203200000Y-137160000D03*
X203200000Y-135890000D03*
X204470000Y-135890000D03*
X205740000Y-135890000D03*
X207010000Y-135890000D03*
X208251791Y-135870719D03*
X209550000Y-135890000D03*
X210820000Y-135890000D03*
X212090000Y-135890000D03*
X212090000Y-134620000D03*
X210820000Y-134620000D03*
X209550000Y-134620000D03*
X208280000Y-134620000D03*
X207010000Y-134620000D03*
X205740000Y-134620000D03*
X204470000Y-134620000D03*
X203200000Y-134620000D03*
X203200000Y-133350000D03*
X204470000Y-133350000D03*
X205740000Y-133350000D03*
X207010000Y-133350000D03*
X208280000Y-133350000D03*
X209550000Y-133350000D03*
X210820000Y-133350000D03*
X212090000Y-133350000D03*
X196850000Y-146050000D03*
X196850000Y-144780000D03*
X195580000Y-146050000D03*
X195580000Y-144780000D03*
X194310000Y-146050000D03*
X194310000Y-144780000D03*
X193040000Y-146050000D03*
X193040000Y-144780000D03*
X191770000Y-146050000D03*
X191770000Y-144780000D03*
X190500000Y-146050000D03*
X190500000Y-144780000D03*
X189230000Y-146050000D03*
X189230000Y-144780000D03*
X187960000Y-146050000D03*
X187960000Y-144780000D03*
X198120000Y-142240000D03*
X196850000Y-142240000D03*
X196850000Y-143510000D03*
X195580000Y-143510000D03*
X194310000Y-143510000D03*
X194310000Y-142240000D03*
X187960000Y-142240000D03*
X187960000Y-143510000D03*
X190500000Y-143510000D03*
X191770000Y-143510000D03*
X193040000Y-143510000D03*
X193027146Y-142237024D03*
X193040000Y-140970000D03*
X193040000Y-139700000D03*
X193040000Y-138430000D03*
X187960000Y-137160000D03*
X189230000Y-137160000D03*
X190500000Y-137160000D03*
X191770000Y-137160000D03*
X191770000Y-135890000D03*
X193040000Y-134620000D03*
X193040000Y-135890000D03*
X193040000Y-137160000D03*
X194310000Y-137160000D03*
X194310000Y-135890000D03*
X194310000Y-134620000D03*
X195580000Y-134620000D03*
X195580000Y-135890000D03*
X195580000Y-137160000D03*
X196850000Y-137160000D03*
X196850000Y-135890000D03*
X196850000Y-134620000D03*
X196850000Y-133350000D03*
X195580000Y-133350000D03*
X194310000Y-133350000D03*
X193040000Y-133350000D03*
X191770000Y-133350000D03*
X191770000Y-134620000D03*
X189230000Y-135890000D03*
X190500000Y-135890000D03*
X190500000Y-134620000D03*
X190500000Y-133350000D03*
X189230000Y-133350000D03*
X189230000Y-134620000D03*
X187960000Y-135890000D03*
X187960000Y-134620000D03*
%TD*%
%TA.AperFunction,Conductor*%
%TO.N,GND*%
G36*
X211013227Y-132402518D02*
G01*
X211024642Y-132405143D01*
X211035517Y-132402682D01*
X211046664Y-132402702D01*
X211046664Y-132402863D01*
X211056669Y-132402076D01*
X211128759Y-132406801D01*
X211253475Y-132414975D01*
X211266300Y-132416663D01*
X211484515Y-132460069D01*
X211497022Y-132463421D01*
X211707688Y-132534932D01*
X211719651Y-132539888D01*
X211811387Y-132585127D01*
X211919180Y-132638284D01*
X211930386Y-132644753D01*
X212115385Y-132768365D01*
X212125639Y-132776233D01*
X212292914Y-132922930D01*
X212302069Y-132932085D01*
X212448767Y-133099361D01*
X212456635Y-133109615D01*
X212580247Y-133294614D01*
X212586716Y-133305820D01*
X212685112Y-133505348D01*
X212690068Y-133517312D01*
X212761579Y-133727978D01*
X212764931Y-133740484D01*
X212808337Y-133958700D01*
X212810025Y-133971523D01*
X212822869Y-134167484D01*
X212822891Y-134167816D01*
X212822101Y-134177628D01*
X212822375Y-134177628D01*
X212822355Y-134188778D01*
X212819857Y-134199642D01*
X212822317Y-134210514D01*
X212822317Y-134210516D01*
X212822559Y-134211583D01*
X212825000Y-134233432D01*
X212825000Y-145166040D01*
X212822482Y-145188227D01*
X212819857Y-145199642D01*
X212822318Y-145210517D01*
X212822298Y-145221664D01*
X212822137Y-145221664D01*
X212822924Y-145231669D01*
X212810026Y-145428469D01*
X212808337Y-145441300D01*
X212803491Y-145465665D01*
X212764931Y-145659515D01*
X212761579Y-145672022D01*
X212690068Y-145882688D01*
X212685112Y-145894652D01*
X212586716Y-146094180D01*
X212580247Y-146105386D01*
X212456635Y-146290385D01*
X212448767Y-146300639D01*
X212316003Y-146452027D01*
X212302070Y-146467914D01*
X212292915Y-146477069D01*
X212125639Y-146623767D01*
X212115385Y-146631635D01*
X211930386Y-146755247D01*
X211919180Y-146761716D01*
X211740699Y-146849733D01*
X211719652Y-146860112D01*
X211707688Y-146865068D01*
X211497022Y-146936579D01*
X211484516Y-146939931D01*
X211266300Y-146983337D01*
X211253477Y-146985025D01*
X211057181Y-146997891D01*
X211047372Y-146997101D01*
X211047372Y-146997375D01*
X211036222Y-146997355D01*
X211025358Y-146994857D01*
X211014486Y-146997317D01*
X211014484Y-146997317D01*
X211013417Y-146997559D01*
X210991568Y-147000000D01*
X189058960Y-147000000D01*
X189036773Y-146997482D01*
X189025358Y-146994857D01*
X189014483Y-146997318D01*
X189003336Y-146997298D01*
X189003336Y-146997137D01*
X188993331Y-146997924D01*
X188921241Y-146993199D01*
X188796525Y-146985025D01*
X188783700Y-146983337D01*
X188565484Y-146939931D01*
X188552978Y-146936579D01*
X188342312Y-146865068D01*
X188330348Y-146860112D01*
X188309302Y-146849733D01*
X188130820Y-146761716D01*
X188119614Y-146755247D01*
X187934615Y-146631635D01*
X187924361Y-146623767D01*
X187757085Y-146477069D01*
X187747930Y-146467914D01*
X187733997Y-146452027D01*
X187601233Y-146300639D01*
X187593365Y-146290385D01*
X187469753Y-146105386D01*
X187463284Y-146094180D01*
X187364888Y-145894652D01*
X187359932Y-145882688D01*
X187288421Y-145672022D01*
X187285069Y-145659515D01*
X187246509Y-145465665D01*
X187241663Y-145441300D01*
X187239974Y-145428470D01*
X187228310Y-145250500D01*
X187227109Y-145232181D01*
X187227899Y-145222372D01*
X187227625Y-145222372D01*
X187227645Y-145211222D01*
X187230143Y-145200358D01*
X187227683Y-145189486D01*
X187227683Y-145189484D01*
X187227441Y-145188417D01*
X187225000Y-145166568D01*
X187225000Y-144192631D01*
X198969443Y-144192631D01*
X198988114Y-144397797D01*
X199046280Y-144595428D01*
X199141726Y-144777998D01*
X199270815Y-144938553D01*
X199428630Y-145070976D01*
X199432878Y-145073311D01*
X199432879Y-145073312D01*
X199490263Y-145104859D01*
X199609162Y-145170224D01*
X199613775Y-145171687D01*
X199613779Y-145171689D01*
X199705285Y-145200716D01*
X199805532Y-145232516D01*
X199810344Y-145233056D01*
X199810345Y-145233056D01*
X199963108Y-145250191D01*
X199963110Y-145250191D01*
X199965864Y-145250500D01*
X200076841Y-145250500D01*
X200079236Y-145250265D01*
X200079240Y-145250265D01*
X200225220Y-145235952D01*
X200225224Y-145235951D01*
X200230030Y-145235480D01*
X200234655Y-145234084D01*
X200234658Y-145234083D01*
X200347131Y-145200125D01*
X200427251Y-145175935D01*
X200609151Y-145079218D01*
X200768800Y-144949011D01*
X200900118Y-144790275D01*
X200998103Y-144609055D01*
X201059023Y-144412254D01*
X201060055Y-144402441D01*
X201080051Y-144212185D01*
X201080051Y-144212183D01*
X201080557Y-144207369D01*
X201061886Y-144002203D01*
X201003720Y-143804572D01*
X200908274Y-143622002D01*
X200779185Y-143461447D01*
X200621370Y-143329024D01*
X200602242Y-143318508D01*
X200445085Y-143232111D01*
X200440838Y-143229776D01*
X200436225Y-143228313D01*
X200436221Y-143228311D01*
X200249083Y-143168948D01*
X200244468Y-143167484D01*
X200239656Y-143166944D01*
X200239655Y-143166944D01*
X200086892Y-143149809D01*
X200086890Y-143149809D01*
X200084136Y-143149500D01*
X199973159Y-143149500D01*
X199970764Y-143149735D01*
X199970760Y-143149735D01*
X199824780Y-143164048D01*
X199824776Y-143164049D01*
X199819970Y-143164520D01*
X199815345Y-143165916D01*
X199815342Y-143165917D01*
X199702869Y-143199875D01*
X199622749Y-143224065D01*
X199440849Y-143320782D01*
X199281200Y-143450989D01*
X199149882Y-143609725D01*
X199051897Y-143790945D01*
X198990977Y-143987746D01*
X198990472Y-143992554D01*
X198990471Y-143992557D01*
X198988951Y-144007022D01*
X198969443Y-144192631D01*
X187225000Y-144192631D01*
X187225000Y-139692631D01*
X194469443Y-139692631D01*
X194488114Y-139897797D01*
X194546280Y-140095428D01*
X194641726Y-140277998D01*
X194657401Y-140297494D01*
X194689030Y-140336832D01*
X194770815Y-140438553D01*
X194928630Y-140570976D01*
X194932878Y-140573311D01*
X194932879Y-140573312D01*
X194990263Y-140604859D01*
X195109162Y-140670224D01*
X195113775Y-140671687D01*
X195113779Y-140671689D01*
X195283689Y-140725587D01*
X195305532Y-140732516D01*
X195310344Y-140733056D01*
X195310345Y-140733056D01*
X195463108Y-140750191D01*
X195463110Y-140750191D01*
X195465864Y-140750500D01*
X195576841Y-140750500D01*
X195579236Y-140750265D01*
X195579240Y-140750265D01*
X195725220Y-140735952D01*
X195725224Y-140735951D01*
X195730030Y-140735480D01*
X195734655Y-140734084D01*
X195734658Y-140734083D01*
X195847131Y-140700125D01*
X195927251Y-140675935D01*
X196109151Y-140579218D01*
X196268800Y-140449011D01*
X196400118Y-140290275D01*
X196498103Y-140109055D01*
X196518924Y-140041793D01*
X196557593Y-139916875D01*
X196557594Y-139916871D01*
X196559023Y-139912254D01*
X196560055Y-139902441D01*
X196576367Y-139747236D01*
X197744958Y-139747236D01*
X197771014Y-140045065D01*
X197812748Y-140231773D01*
X197816554Y-140248796D01*
X197836232Y-140336832D01*
X197939464Y-140617410D01*
X197940992Y-140620308D01*
X198037387Y-140803137D01*
X198078898Y-140881870D01*
X198252084Y-141125565D01*
X198455979Y-141344216D01*
X198458515Y-141346299D01*
X198458516Y-141346300D01*
X198684461Y-141531894D01*
X198684466Y-141531898D01*
X198687000Y-141533979D01*
X198845289Y-141632122D01*
X198869132Y-141646905D01*
X198941090Y-141691521D01*
X198944087Y-141692868D01*
X198944091Y-141692870D01*
X199104682Y-141765042D01*
X199213783Y-141814074D01*
X199500289Y-141899485D01*
X199503530Y-141899998D01*
X199503533Y-141899999D01*
X199591913Y-141913997D01*
X199795575Y-141946254D01*
X199866545Y-141949477D01*
X199887974Y-141950450D01*
X199887980Y-141950450D01*
X199889078Y-141950500D01*
X200075834Y-141950500D01*
X200298309Y-141935723D01*
X200482681Y-141898547D01*
X200588150Y-141877281D01*
X200588155Y-141877280D01*
X200591377Y-141876630D01*
X200634632Y-141861736D01*
X200870944Y-141780368D01*
X200870950Y-141780365D01*
X200874056Y-141779296D01*
X201141378Y-141645431D01*
X201388647Y-141477387D01*
X201611520Y-141278117D01*
X201613661Y-141275619D01*
X201613665Y-141275615D01*
X201803942Y-141053614D01*
X201803946Y-141053608D01*
X201806079Y-141051120D01*
X201968908Y-140800386D01*
X202057252Y-140614333D01*
X202095738Y-140533283D01*
X202095740Y-140533278D01*
X202097145Y-140530319D01*
X202188538Y-140245664D01*
X202241480Y-139951422D01*
X202253232Y-139692631D01*
X203469443Y-139692631D01*
X203488114Y-139897797D01*
X203546280Y-140095428D01*
X203641726Y-140277998D01*
X203657401Y-140297494D01*
X203689030Y-140336832D01*
X203770815Y-140438553D01*
X203928630Y-140570976D01*
X203932878Y-140573311D01*
X203932879Y-140573312D01*
X203990263Y-140604859D01*
X204109162Y-140670224D01*
X204113775Y-140671687D01*
X204113779Y-140671689D01*
X204283689Y-140725587D01*
X204305532Y-140732516D01*
X204310344Y-140733056D01*
X204310345Y-140733056D01*
X204463108Y-140750191D01*
X204463110Y-140750191D01*
X204465864Y-140750500D01*
X204576841Y-140750500D01*
X204579236Y-140750265D01*
X204579240Y-140750265D01*
X204725220Y-140735952D01*
X204725224Y-140735951D01*
X204730030Y-140735480D01*
X204734655Y-140734084D01*
X204734658Y-140734083D01*
X204847131Y-140700125D01*
X204927251Y-140675935D01*
X205109151Y-140579218D01*
X205268800Y-140449011D01*
X205400118Y-140290275D01*
X205498103Y-140109055D01*
X205518924Y-140041793D01*
X205557593Y-139916875D01*
X205557594Y-139916871D01*
X205559023Y-139912254D01*
X205560055Y-139902441D01*
X205580051Y-139712185D01*
X205580051Y-139712183D01*
X205580557Y-139707369D01*
X205561886Y-139502203D01*
X205503720Y-139304572D01*
X205408274Y-139122002D01*
X205363549Y-139066375D01*
X205282219Y-138965220D01*
X205282217Y-138965217D01*
X205279185Y-138961447D01*
X205121370Y-138829024D01*
X205102242Y-138818508D01*
X204945085Y-138732111D01*
X204940838Y-138729776D01*
X204936225Y-138728313D01*
X204936221Y-138728311D01*
X204749083Y-138668948D01*
X204744468Y-138667484D01*
X204739656Y-138666944D01*
X204739655Y-138666944D01*
X204586892Y-138649809D01*
X204586890Y-138649809D01*
X204584136Y-138649500D01*
X204473159Y-138649500D01*
X204470764Y-138649735D01*
X204470760Y-138649735D01*
X204324780Y-138664048D01*
X204324776Y-138664049D01*
X204319970Y-138664520D01*
X204315345Y-138665916D01*
X204315342Y-138665917D01*
X204202869Y-138699875D01*
X204122749Y-138724065D01*
X203940849Y-138820782D01*
X203781200Y-138950989D01*
X203649882Y-139109725D01*
X203551897Y-139290945D01*
X203550468Y-139295562D01*
X203503102Y-139448578D01*
X203490977Y-139487746D01*
X203490472Y-139492554D01*
X203490471Y-139492557D01*
X203469949Y-139687815D01*
X203469443Y-139692631D01*
X202253232Y-139692631D01*
X202255042Y-139652764D01*
X202228986Y-139354935D01*
X202184147Y-139154336D01*
X202164485Y-139066375D01*
X202164484Y-139066373D01*
X202163768Y-139063168D01*
X202060536Y-138782590D01*
X202028942Y-138722667D01*
X201922632Y-138521031D01*
X201922629Y-138521026D01*
X201921102Y-138518130D01*
X201747916Y-138274435D01*
X201544021Y-138055784D01*
X201384566Y-137924806D01*
X201315539Y-137868106D01*
X201315534Y-137868102D01*
X201313000Y-137866021D01*
X201133246Y-137754569D01*
X201061707Y-137710213D01*
X201061705Y-137710212D01*
X201058910Y-137708479D01*
X201055913Y-137707132D01*
X201055909Y-137707130D01*
X200866879Y-137622177D01*
X200786217Y-137585926D01*
X200499711Y-137500515D01*
X200496470Y-137500002D01*
X200496467Y-137500001D01*
X200408087Y-137486003D01*
X200204425Y-137453746D01*
X200133455Y-137450523D01*
X200112026Y-137449550D01*
X200112020Y-137449550D01*
X200110922Y-137449500D01*
X199924166Y-137449500D01*
X199701691Y-137464277D01*
X199553358Y-137494186D01*
X199411850Y-137522719D01*
X199411845Y-137522720D01*
X199408623Y-137523370D01*
X199405506Y-137524443D01*
X199405507Y-137524443D01*
X199129056Y-137619632D01*
X199129050Y-137619635D01*
X199125944Y-137620704D01*
X198858622Y-137754569D01*
X198611353Y-137922613D01*
X198388480Y-138121883D01*
X198386339Y-138124381D01*
X198386335Y-138124385D01*
X198196058Y-138346386D01*
X198196054Y-138346392D01*
X198193921Y-138348880D01*
X198031092Y-138599614D01*
X197970920Y-138726337D01*
X197923270Y-138826688D01*
X197902855Y-138869681D01*
X197811462Y-139154336D01*
X197758520Y-139448578D01*
X197744958Y-139747236D01*
X196576367Y-139747236D01*
X196580051Y-139712185D01*
X196580051Y-139712183D01*
X196580557Y-139707369D01*
X196561886Y-139502203D01*
X196503720Y-139304572D01*
X196408274Y-139122002D01*
X196363549Y-139066375D01*
X196282219Y-138965220D01*
X196282217Y-138965217D01*
X196279185Y-138961447D01*
X196121370Y-138829024D01*
X196102242Y-138818508D01*
X195945085Y-138732111D01*
X195940838Y-138729776D01*
X195936225Y-138728313D01*
X195936221Y-138728311D01*
X195749083Y-138668948D01*
X195744468Y-138667484D01*
X195739656Y-138666944D01*
X195739655Y-138666944D01*
X195586892Y-138649809D01*
X195586890Y-138649809D01*
X195584136Y-138649500D01*
X195473159Y-138649500D01*
X195470764Y-138649735D01*
X195470760Y-138649735D01*
X195324780Y-138664048D01*
X195324776Y-138664049D01*
X195319970Y-138664520D01*
X195315345Y-138665916D01*
X195315342Y-138665917D01*
X195202869Y-138699875D01*
X195122749Y-138724065D01*
X194940849Y-138820782D01*
X194781200Y-138950989D01*
X194649882Y-139109725D01*
X194551897Y-139290945D01*
X194550468Y-139295562D01*
X194503102Y-139448578D01*
X194490977Y-139487746D01*
X194490472Y-139492554D01*
X194490471Y-139492557D01*
X194469949Y-139687815D01*
X194469443Y-139692631D01*
X187225000Y-139692631D01*
X187225000Y-135192631D01*
X198969443Y-135192631D01*
X198988114Y-135397797D01*
X199046280Y-135595428D01*
X199141726Y-135777998D01*
X199270815Y-135938553D01*
X199428630Y-136070976D01*
X199432878Y-136073311D01*
X199432879Y-136073312D01*
X199490263Y-136104859D01*
X199609162Y-136170224D01*
X199613775Y-136171687D01*
X199613779Y-136171689D01*
X199783689Y-136225587D01*
X199805532Y-136232516D01*
X199810344Y-136233056D01*
X199810345Y-136233056D01*
X199963108Y-136250191D01*
X199963110Y-136250191D01*
X199965864Y-136250500D01*
X200076841Y-136250500D01*
X200079236Y-136250265D01*
X200079240Y-136250265D01*
X200225220Y-136235952D01*
X200225224Y-136235951D01*
X200230030Y-136235480D01*
X200234655Y-136234084D01*
X200234658Y-136234083D01*
X200347131Y-136200125D01*
X200427251Y-136175935D01*
X200609151Y-136079218D01*
X200768800Y-135949011D01*
X200900118Y-135790275D01*
X200998103Y-135609055D01*
X201059023Y-135412254D01*
X201060055Y-135402441D01*
X201080051Y-135212185D01*
X201080051Y-135212183D01*
X201080557Y-135207369D01*
X201061886Y-135002203D01*
X201003720Y-134804572D01*
X200908274Y-134622002D01*
X200779185Y-134461447D01*
X200621370Y-134329024D01*
X200602242Y-134318508D01*
X200445085Y-134232111D01*
X200440838Y-134229776D01*
X200436225Y-134228313D01*
X200436221Y-134228311D01*
X200249083Y-134168948D01*
X200244468Y-134167484D01*
X200239656Y-134166944D01*
X200239655Y-134166944D01*
X200086892Y-134149809D01*
X200086890Y-134149809D01*
X200084136Y-134149500D01*
X199973159Y-134149500D01*
X199970764Y-134149735D01*
X199970760Y-134149735D01*
X199824780Y-134164048D01*
X199824776Y-134164049D01*
X199819970Y-134164520D01*
X199815345Y-134165916D01*
X199815342Y-134165917D01*
X199760464Y-134182486D01*
X199622749Y-134224065D01*
X199440849Y-134320782D01*
X199281200Y-134450989D01*
X199149882Y-134609725D01*
X199051897Y-134790945D01*
X198990977Y-134987746D01*
X198990472Y-134992554D01*
X198990471Y-134992557D01*
X198988951Y-135007022D01*
X198969443Y-135192631D01*
X187225000Y-135192631D01*
X187225000Y-134234222D01*
X187227557Y-134211867D01*
X187228875Y-134206181D01*
X187230142Y-134200716D01*
X187230143Y-134200000D01*
X187228900Y-134194552D01*
X187228278Y-134188992D01*
X187228752Y-134188939D01*
X187227093Y-134168075D01*
X187239974Y-133971531D01*
X187241663Y-133958700D01*
X187285069Y-133740484D01*
X187288421Y-133727978D01*
X187359932Y-133517312D01*
X187364888Y-133505348D01*
X187463284Y-133305820D01*
X187469753Y-133294614D01*
X187593365Y-133109615D01*
X187601233Y-133099361D01*
X187747931Y-132932085D01*
X187757086Y-132922930D01*
X187924361Y-132776233D01*
X187934615Y-132768365D01*
X188119614Y-132644753D01*
X188130820Y-132638284D01*
X188238613Y-132585127D01*
X188330349Y-132539888D01*
X188342312Y-132534932D01*
X188552978Y-132463421D01*
X188565485Y-132460069D01*
X188783700Y-132416663D01*
X188796523Y-132414975D01*
X188992819Y-132402109D01*
X189002628Y-132402899D01*
X189002628Y-132402625D01*
X189013778Y-132402645D01*
X189024642Y-132405143D01*
X189035514Y-132402683D01*
X189035516Y-132402683D01*
X189036583Y-132402441D01*
X189058432Y-132400000D01*
X210991040Y-132400000D01*
X211013227Y-132402518D01*
G37*
%TD.AperFunction*%
%TD*%
M02*
